<svg width="758" height="758" viewBox="0 0 758 758" fill="none" xmlns="http://www.w3.org/2000/svg">
<g filter="url(#filter0_d_565_461)">
<rect width="750" height="750" transform="translate(4)" fill="white"/>
<path fill-rule="evenodd" clip-rule="evenodd" d="M687.382 502.56C636.687 604.791 417.311 692.788 199.311 598.306C73.9201 543.962 26.4884 413.008 24.0048 352.437C22.0517 304.804 57.5624 254.019 79 232.199C124.568 185.818 367.763 128.048 423.311 131.015C501.73 128.815 550.652 196.874 612.377 200.119C656.265 202.427 787.687 300.285 687.382 502.56Z" fill="#64FCD9"/>
<path fill-rule="evenodd" clip-rule="evenodd" d="M381.801 345.063C381.546 348.864 381.858 352.702 382.723 356.412C383.087 357.976 385.435 358.265 386.655 357.22C387.875 356.175 388.2 354.439 388.332 352.838C388.526 350.471 388.464 348.083 388.146 345.73C387.982 344.514 387.73 343.259 386.997 342.275C386.263 341.291 384.922 340.661 383.777 341.101C382.317 341.66 381.905 343.504 381.801 345.063Z" fill="white"/>
<path fill-rule="evenodd" clip-rule="evenodd" d="M197.182 251.794C210.581 245.159 226.58 243.97 240.812 248.552C244.387 241.682 249.654 235.7 256.017 231.283C257.244 230.431 259.001 229.662 260.105 230.668C259.66 237.728 259.215 244.809 259.633 251.871C259.958 257.368 260.804 262.833 260.882 268.339C261.105 284.252 254.867 299.665 246.38 313.128C266.755 326.831 282.114 347.824 289.009 371.39C286.126 372.878 210.679 375.5 169.869 372.237C168.924 372.878 168.039 371.33 167.931 370.194C166.839 358.696 166.226 346.989 168.612 335.689C170.997 324.388 176.698 313.404 186.117 306.719C177.376 287.689 180.775 264.343 170.112 246.319C169.479 245.249 168.946 243.579 170.054 243.016C170.465 242.807 170.956 242.872 171.411 242.949C178.846 244.21 185.931 247.48 191.715 252.32C193.207 253.568 195.439 252.657 197.182 251.794Z" fill="white"/>
<path fill-rule="evenodd" clip-rule="evenodd" d="M486.295 370.225C486.244 370.225 494.042 358.534 498.824 353.095C503.19 348.129 505.749 341.607 505.927 334.997C490.829 334.4 475.807 331.906 461.327 327.591C459.111 326.931 456.825 326.181 455.145 324.592C451.222 320.882 452.193 314.412 454.216 309.406C456.671 303.329 460.239 297.704 464.689 292.893C466.21 291.248 467.861 289.66 468.858 287.653C469.854 285.646 470.064 283.064 468.719 281.272C466.453 278.251 465.976 274.284 465.74 270.515C465.504 266.747 465.397 262.829 463.685 259.463C461.973 256.098 458.086 253.481 454.475 254.585C453.6 253.248 455.329 251.704 456.852 251.221C462.604 249.393 469.048 250.993 474.09 254.31C479.133 257.627 482.958 262.491 486.244 267.553C487.528 269.53 489.697 271.852 491.789 270.765C506.072 263.349 523.504 262.268 538.594 267.863C540.692 268.641 543.916 268.974 544.344 266.778C546.473 255.844 555.599 246.608 566.507 244.348C562.22 247.423 561.961 253.677 562.819 258.882C563.677 264.087 565.189 269.633 563.049 274.454C561.321 278.346 565.672 282.005 569.196 284.396C574.517 288.007 579.275 292.446 583.246 297.504C587.176 302.508 590.451 308.939 588.656 315.044C586.307 323.035 576.903 326.198 568.81 328.171C560.911 330.096 553.011 332.022 545.112 333.948C544.966 341.655 547.717 349.382 552.7 355.262C556.698 359.979 562.506 364.84 561.235 370.891C563.896 375.111 538.916 374.889 486.295 370.225Z" fill="white"/>
<path fill-rule="evenodd" clip-rule="evenodd" d="M505.255 474.441C507.977 476.126 510.995 478.142 514.107 477.392C521.312 475.654 529.027 476.09 535.99 478.63C538.921 479.699 541.579 476.666 543.416 474.144C548.748 466.824 555.721 460.706 563.672 456.371C569.155 465.372 563.601 477.825 568.368 487.224C575.746 501.77 573.786 520.557 563.565 533.267C574.291 543.747 581.585 557.685 584.079 572.473C582.804 572.849 517.47 580.952 481.594 571.23C481.197 560.807 484.955 550.284 491.865 542.471C481.607 530.391 476.603 513.999 478.365 498.25C478.549 496.611 478.785 494.864 478.054 493.385C474.227 485.636 471.591 477.3 470.267 468.759C470.188 468.249 470.123 467.689 470.392 467.249C470.75 466.664 471.531 466.537 472.215 466.481C483.698 465.545 495.457 468.378 505.255 474.441Z" fill="white"/>
<path fill-rule="evenodd" clip-rule="evenodd" d="M194.527 573.89C195.832 566.075 197.138 558.259 198.443 550.444C198.782 548.416 198.735 545.699 196.779 545.064C190.68 543.082 185.526 538.367 183.01 532.468C182.218 530.61 179.772 529.948 177.827 530.496C175.883 531.043 174.331 532.473 172.859 533.857C173.699 530.577 176.713 527.97 180.081 527.614C181.224 525.688 179.587 523.026 177.418 522.466C175.249 521.907 172.964 522.884 171.152 524.203C171.011 522.115 173.552 521.093 175.477 520.273C177.403 519.452 179.283 516.862 177.641 515.564C176.926 514.998 175.909 515.099 175.006 515.228C172.395 515.601 169.785 515.975 167.174 516.348C167.471 514.246 170.202 513.707 172.319 513.544C174.435 513.381 177.168 512.351 176.932 510.241C176.025 502.112 177.994 493.867 181.279 486.376C184.001 480.17 175.991 473.954 176.516 467.198C176.557 466.674 176.682 466.102 177.104 465.79C177.608 465.417 178.313 465.566 178.912 465.751C183.036 467.023 186.86 469.258 189.993 472.226C191.513 473.667 193.963 472.684 195.876 471.831C202.932 468.682 211.202 468.355 218.483 470.939C225.059 473.272 230.891 462.019 237.408 464.512C235.744 469.986 234.081 475.46 232.418 480.933C231.959 482.444 231.525 484.177 232.359 485.517C235.169 490.032 236.873 495.23 237.282 500.532C237.569 504.267 238.292 509.312 242.027 509.605C240.4 510.32 238.606 511.212 238.043 512.897C237.48 514.582 239.405 516.806 240.862 515.789C242.12 514.912 244.153 515.644 244.562 517.122C242.407 516.91 240.07 517.146 238.385 518.506C236.7 519.866 236.039 522.618 237.467 524.246C240.6 522.955 244.3 523.124 247.302 524.696C245.513 526.011 243.056 525.622 240.839 525.49C238.622 525.358 235.923 525.869 235.138 527.947C232.52 534.88 226.087 540.231 218.792 541.541C215.199 542.186 214.622 547.046 214.919 550.685C215.54 558.319 216.161 565.952 216.783 573.585C215.503 574.801 200.643 576.485 194.527 573.89Z" fill="white"/>
<path fill-rule="evenodd" clip-rule="evenodd" d="M95.086 541.105C94.8314 544.905 95.1431 548.743 96.0079 552.453C96.3726 554.018 98.7202 554.307 99.9403 553.262C101.16 552.217 101.486 550.48 101.617 548.879C101.811 546.512 101.749 544.125 101.432 541.771C101.268 540.555 101.015 539.301 100.282 538.317C99.5486 537.333 98.2078 536.703 97.062 537.142C95.6026 537.702 95.1905 539.545 95.086 541.105V541.105Z" fill="white"/>
<path fill-rule="evenodd" clip-rule="evenodd" d="M390.199 562.056C390.654 562.311 390.589 563.045 390.205 563.398C389.821 563.751 389.265 563.828 388.747 563.887C386.938 564.096 384.948 564.263 383.449 563.229C384.211 562.685 384.973 562.142 385.735 561.598C385.256 560.911 384.316 560.772 383.484 560.671C382.653 560.569 381.707 560.37 381.301 559.637C380.896 558.903 381.779 557.737 382.445 558.246C384.499 559.819 387.519 559.998 389.744 558.679C391.209 557.811 392.596 556.305 394.267 556.63C393.099 558.905 390.785 560.553 388.254 560.914C388.312 561.797 389.399 562.436 390.199 562.056Z" fill="#00160A"/>
<path fill-rule="evenodd" clip-rule="evenodd" d="M99.7342 560.871C97.9235 561.081 95.9311 561.249 94.4316 560.213C95.1995 559.667 95.9674 559.122 96.7353 558.577C96.2063 557.908 95.2571 557.793 94.4121 557.677C93.5671 557.562 92.6058 557.301 92.2558 556.523C91.9059 555.746 92.9526 554.658 93.5497 555.267C95.0171 556.763 97.4548 556.858 99.4375 556.178C101.42 555.498 103.112 554.189 104.92 553.128C104.966 555.803 101.834 557.212 99.2555 557.927C99.3155 558.799 100.395 559.423 101.181 559.04C101.637 559.293 101.574 560.027 101.191 560.381C100.808 560.735 100.252 560.811 99.7342 560.871V560.871Z" fill="#00160A"/>
<path fill-rule="evenodd" clip-rule="evenodd" d="M95.7788 555.588C92.9463 554.533 92.3759 550.846 92.2595 547.825C92.1825 545.827 92.1055 543.829 92.0285 541.831C91.9854 540.712 91.9454 539.568 92.2758 538.498C92.827 536.714 94.4645 535.314 96.3134 535.047C98.1623 534.781 100.129 535.661 101.162 537.217C101.752 538.107 102.04 539.16 102.266 540.203C102.747 542.428 102.987 544.705 102.981 546.981C102.975 549.187 102.704 551.492 101.479 553.328C100.255 555.163 97.8461 556.359 95.7788 555.588H95.7788ZM98.3167 553.926C99.7826 553.464 100.321 551.695 100.529 550.172C100.89 547.528 100.92 544.84 100.619 542.19C100.468 540.855 100.207 539.471 99.3865 538.407C98.5656 537.344 97.0293 536.723 95.8317 537.331C94.3464 538.086 94.1756 540.102 94.2034 541.767C94.2396 543.937 94.2758 546.108 94.3121 548.278C94.3346 549.628 94.3708 551.034 94.9962 552.231C95.6216 553.428 97.0289 554.332 98.3167 553.926V553.926Z" fill="#00160A"/>
<path fill-rule="evenodd" clip-rule="evenodd" d="M383.332 537.598C385.346 536.312 388.198 537.235 389.715 539.082C391.232 540.928 391.686 543.42 391.825 545.806C391.906 547.188 391.9 548.575 391.807 549.956C391.675 551.896 391.345 553.894 390.27 555.513C389.195 557.133 387.211 558.28 385.312 557.864C383.68 557.506 382.447 556.085 381.857 554.522C381.266 552.958 381.209 551.252 381.159 549.582C381.111 547.992 381.063 546.401 381.015 544.811C380.935 542.164 381.1 539.024 383.332 537.598ZM385.727 556.037C386.826 556.308 387.989 555.635 388.614 554.691C389.238 553.747 389.43 552.587 389.548 551.461C389.808 548.983 389.777 546.475 389.458 544.004C389.295 542.738 389.033 541.429 388.254 540.418C387.475 539.408 386.039 538.799 384.88 539.333C383.489 539.975 383.175 541.783 383.107 543.313C382.978 546.211 383.073 549.12 383.389 552.004C383.57 553.654 384.115 555.639 385.727 556.037V556.037Z" fill="#00160A"/>
<path fill-rule="evenodd" clip-rule="evenodd" d="M383.086 543.105C382.831 546.905 383.143 550.743 384.008 554.453C384.373 556.018 386.72 556.307 387.94 555.262C389.16 554.217 389.486 552.48 389.617 550.879C389.811 548.512 389.749 546.125 389.432 543.771C389.268 542.555 389.015 541.301 388.282 540.317C387.549 539.333 386.208 538.703 385.062 539.142C383.603 539.702 383.191 541.545 383.086 543.105V543.105Z" fill="white"/>
<path fill-rule="evenodd" clip-rule="evenodd" d="M379.056 360.144C379.263 359.462 380.144 359.213 380.838 359.376C381.532 359.539 382.123 359.983 382.779 360.263C385.225 361.311 388.028 359.948 390.107 358.287C390.805 357.73 391.927 357.169 392.455 357.89C391.202 360.019 388.968 361.544 386.529 361.937C386.603 362.811 387.673 363.435 388.47 363.069C388.92 363.326 388.853 364.053 388.472 364.403C388.09 364.753 387.538 364.829 387.024 364.889C385.228 365.097 383.261 365.268 381.753 364.269C382.558 363.637 383.362 363.005 384.166 362.372C382.301 362.121 380.51 361.34 379.056 360.144Z" fill="#00160A"/>
<path fill-rule="evenodd" clip-rule="evenodd" d="M472.215 466.481C483.698 465.545 495.457 468.378 505.255 474.441C507.977 476.126 510.995 478.142 514.107 477.392C521.312 475.654 529.027 476.09 535.99 478.63C538.921 479.699 541.579 476.666 543.416 474.144C548.748 466.824 555.721 460.706 563.672 456.371C569.155 465.372 563.601 477.825 568.368 487.224C575.746 501.77 573.786 520.557 563.565 533.267C574.291 543.747 581.585 557.685 584.079 572.473C582.804 572.849 581.967 571.184 581.659 569.891C578.907 558.335 573.441 547.435 565.826 538.318C564.043 536.183 561.129 533.97 558.777 535.455C540.089 547.256 516.397 550.82 495.064 545.04C491.544 544.086 489.045 548.36 487.916 551.827C485.809 558.295 483.701 564.762 481.594 571.23C481.197 560.807 484.955 550.284 491.865 542.471C481.607 530.391 476.603 513.999 478.365 498.25C478.549 496.611 478.785 494.864 478.054 493.385C474.227 485.636 471.591 477.3 470.267 468.759C470.188 468.249 470.123 467.689 470.392 467.249C470.75 466.664 471.531 466.537 472.215 466.481ZM518.791 487.186C514.734 490.91 511.389 495.407 508.988 500.363C507.57 495.611 508.338 490.252 511.035 486.09C507.388 487.454 504.01 489.538 501.155 492.186C501.158 488.227 503.17 484.321 506.391 482.021C504.996 482.062 503.601 482.103 502.207 482.143C503.659 480.341 505.706 479.026 507.949 478.454C497.675 471.126 484.795 467.536 472.212 468.492C474.432 481.607 479.729 494.191 487.557 504.944C484.213 503.577 481.48 500.783 480.185 497.409C478.751 510.928 482.192 524.912 489.736 536.222C491.14 538.327 492.711 540.372 494.749 541.873C498.131 544.363 502.463 545.126 506.645 545.508C523.37 547.034 540.525 543.48 555.267 535.434C558.1 533.888 560.877 532.156 563.123 529.838C566.094 526.77 568.002 522.805 569.229 518.714C572.448 507.98 571.082 495.952 565.538 486.214C564.537 489.201 563.536 492.188 562.535 495.176C562.112 496.436 560.237 497.752 559.879 496.472C564.852 484.689 565.918 471.296 562.873 458.874C551.517 466.411 542.001 476.7 535.373 488.609C535.094 485.835 535.807 482.971 537.353 480.652C530.184 486.143 523.97 492.879 519.074 500.467C518.185 496.105 518.088 491.582 518.791 487.186Z" fill="#00160A"/>
<path fill-rule="evenodd" clip-rule="evenodd" d="M88.5901 362.38C89.558 362.55 90.6028 362.179 91.247 361.437C89.2915 361.088 87.42 360.277 85.8285 359.089C86.4625 358.003 88.0868 358.656 89.2576 359.114C92.0935 360.223 95.6343 359.083 97.2909 356.528C97.7365 355.841 98.9302 356.628 98.7992 357.437C98.6683 358.245 97.8711 358.746 97.1528 359.139C95.7802 359.891 94.4076 360.643 93.0351 361.396C94.163 361.497 95.2491 362.013 96.0409 362.823C94.5448 364.041 92.4374 364.065 90.5082 364.031C89.9843 364.021 89.4308 364.004 88.9875 363.724C88.5442 363.445 88.284 362.805 88.5901 362.38Z" fill="#00160A"/>
<path fill-rule="evenodd" clip-rule="evenodd" d="M380.567 341.095C382.12 338.665 386.03 338.242 388.066 340.284C389.235 341.457 389.723 343.136 390.032 344.762C390.451 346.965 390.622 349.214 390.541 351.455C390.467 353.52 390.148 355.661 388.983 357.368C387.819 359.075 385.618 360.214 383.646 359.599C380.693 358.677 380.025 354.868 379.879 351.778C379.802 350.146 379.725 348.513 379.648 346.88C379.554 344.896 379.497 342.768 380.567 341.095ZM381.801 345.063C381.546 348.864 381.858 352.702 382.722 356.412C383.087 357.976 385.435 358.265 386.655 357.22C387.875 356.175 388.2 354.438 388.332 352.837C388.526 350.471 388.464 348.083 388.146 345.73C387.982 344.514 387.73 343.259 386.997 342.275C386.263 341.291 384.922 340.661 383.777 341.101C382.317 341.66 381.905 343.504 381.801 345.063Z" fill="#00160A"/>
<path fill-rule="evenodd" clip-rule="evenodd" d="M89.086 343.105C88.8314 346.905 89.1431 350.744 90.0079 354.453C90.3726 356.018 92.7202 356.307 93.9403 355.262C95.1605 354.217 95.4857 352.48 95.6171 350.879C95.8114 348.512 95.7491 346.125 95.4316 343.771C95.2675 342.555 95.0155 341.301 94.282 340.317C93.5486 339.333 92.2078 338.703 91.062 339.142C89.6026 339.702 89.1905 341.545 89.086 343.105V343.105Z" fill="white"/>
<path fill-rule="evenodd" clip-rule="evenodd" d="M89.668 358.269C87.5274 357.2 86.9408 354.46 86.7062 352.079C86.4775 349.757 86.3465 347.425 86.3137 345.092C86.2918 343.533 86.3305 341.904 87.0625 340.528C87.8585 339.031 89.4744 338.005 91.1676 337.921C92.8608 337.837 94.5703 338.698 95.5107 340.109C96.1277 341.034 96.413 342.138 96.6298 343.229C97.0763 345.477 97.2757 347.774 97.2233 350.065C97.1724 352.291 96.8424 354.621 95.5268 356.417C94.2111 358.214 91.6602 359.264 89.668 358.269V358.269ZM89.0966 354.281C89.2523 355.021 89.4678 355.796 90.0177 356.315C91.097 357.335 93.0045 356.827 93.9161 355.655C94.8278 354.482 94.9948 352.908 95.0548 351.425C95.1435 349.234 95.0744 347.038 94.8483 344.858C94.72 343.621 94.5249 342.344 93.8458 341.302C93.1666 340.26 91.8758 339.519 90.6763 339.847C88.7789 340.366 88.4128 342.858 88.4199 344.825C88.4313 347.991 88.4453 351.183 89.0966 354.281V354.281Z" fill="#00160A"/>
<path fill-rule="evenodd" clip-rule="evenodd" d="M486.295 370.225C486.776 362.999 494.042 358.534 498.824 353.095C503.19 348.129 505.749 341.607 505.927 334.997C490.829 334.4 475.807 331.906 461.327 327.591C459.111 326.931 456.825 326.181 455.145 324.592C451.222 320.882 452.193 314.412 454.216 309.406C456.671 303.329 460.239 297.704 464.689 292.893C466.21 291.248 467.861 289.66 468.858 287.653C469.854 285.646 470.064 283.064 468.719 281.272C466.453 278.251 465.976 274.284 465.74 270.515C465.504 266.747 465.397 262.829 463.685 259.463C461.973 256.098 458.086 253.481 454.475 254.585C453.6 253.248 455.329 251.704 456.852 251.221C462.604 249.393 469.048 250.993 474.09 254.31C479.133 257.627 482.958 262.491 486.244 267.553C487.528 269.53 489.697 271.852 491.789 270.765C506.072 263.349 523.504 262.268 538.594 267.863C540.692 268.641 543.916 268.974 544.344 266.778C546.473 255.844 555.599 246.608 566.507 244.348C562.22 247.423 561.961 253.677 562.819 258.882C563.677 264.087 565.189 269.633 563.049 274.454C561.321 278.346 565.672 282.005 569.196 284.396C574.517 288.007 579.275 292.446 583.246 297.504C587.176 302.508 590.451 308.939 588.656 315.044C586.307 323.035 576.903 326.198 568.81 328.171C560.911 330.096 553.011 332.022 545.112 333.948C544.966 341.655 547.717 349.382 552.7 355.262C556.698 359.979 562.506 364.84 561.235 370.891C558.532 364.457 553.461 359.372 549.387 353.706C545.314 348.039 542.103 340.948 543.945 334.217C540.339 332.928 536.555 335.505 533.828 338.194C531.101 340.883 528.224 344.053 524.4 344.268C518.102 344.622 514.169 336.936 508.013 335.561C507.871 339.683 506.792 343.769 504.882 347.425C502.851 351.312 499.933 354.652 497.044 357.951C493.461 362.043 489.878 366.134 486.295 370.225ZM492.164 272.469C488.334 274.331 494.266 281.608 490.838 284.135C489.075 274.569 484.078 265.629 476.852 259.117C472.16 254.887 465.934 251.554 459.727 252.729C463.356 254.155 465.565 257.927 466.515 261.709C467.465 265.491 467.432 269.448 468.093 273.291C469.258 280.056 472.641 286.419 477.598 291.167C475.34 291.138 473.153 289.75 472.164 287.721C465.214 293.969 459.63 301.727 455.911 310.301C454.443 313.683 453.298 317.716 455.114 320.925C456.646 323.631 459.816 324.889 462.775 325.847C473.42 329.295 484.494 331.417 495.66 332.151C502.331 332.589 509.535 332.701 514.868 336.734C516.805 338.199 518.397 340.127 520.509 341.327C522.62 342.528 525.6 342.773 527.244 340.985C533.663 334.005 543.423 331.299 552.749 329.582C562.075 327.865 571.813 326.716 579.943 321.836C582.995 320.005 585.888 317.469 586.874 314.05C588.216 309.4 585.712 304.548 582.882 300.623C577.175 292.707 569.749 286.037 561.269 281.209C560.899 282.677 559.991 284.004 558.756 284.88C558.358 283.218 559.084 281.522 559.666 279.915C563.263 269.98 561.624 259.011 559.941 248.58C548.904 254.948 543.169 269.274 546.762 281.5C544.658 281.891 543.663 278.941 543.868 276.81C544.072 274.68 544.243 271.896 542.268 271.069C526.385 264.412 507.65 264.935 492.164 272.469Z" fill="#00160A"/>
<path fill-rule="evenodd" clip-rule="evenodd" d="M199.718 499.53C200.826 501.403 200.949 503.824 200.035 505.799C199.55 506.846 197.91 506.81 197.087 506.001C196.263 505.192 196.047 503.965 195.888 502.822C195.743 501.787 195.618 500.696 196.012 499.729C196.407 498.762 197.51 498.001 198.492 498.356C199.035 498.552 199.423 499.033 199.718 499.53V499.53Z" fill="#00160A"/>
<path fill-rule="evenodd" clip-rule="evenodd" d="M216.783 573.585C213.271 564.672 212.098 554.847 213.414 545.357C210.105 548.983 203.999 549.602 200.031 546.713C200.98 556.049 199.034 565.659 194.527 573.89C195.832 566.075 197.138 558.259 198.443 550.444C198.782 548.416 198.735 545.699 196.779 545.064C190.68 543.082 185.526 538.367 183.01 532.468C182.218 530.61 179.772 529.948 177.827 530.496C175.883 531.043 174.331 532.473 172.859 533.857C173.699 530.577 176.713 527.97 180.081 527.614C181.224 525.688 179.587 523.026 177.418 522.466C175.249 521.907 172.964 522.884 171.152 524.203C171.011 522.115 173.552 521.093 175.477 520.273C177.403 519.452 179.283 516.862 177.641 515.564C176.926 514.998 175.909 515.099 175.006 515.228C172.395 515.601 169.785 515.975 167.174 516.348C167.471 514.246 170.202 513.707 172.319 513.544C174.435 513.381 177.168 512.351 176.932 510.241C176.025 502.112 177.994 493.867 181.279 486.376C184.001 480.17 175.991 473.954 176.516 467.198C176.557 466.674 176.682 466.102 177.104 465.79C177.608 465.417 178.313 465.566 178.912 465.751C183.036 467.023 186.86 469.258 189.993 472.226C191.513 473.667 193.963 472.684 195.876 471.831C202.932 468.682 211.202 468.355 218.483 470.939C225.059 473.272 230.891 462.019 237.408 464.512C235.744 469.986 234.081 475.46 232.418 480.933C231.959 482.444 231.525 484.177 232.359 485.517C235.169 490.032 236.873 495.23 237.282 500.532C237.569 504.267 238.292 509.312 242.027 509.605C240.4 510.32 238.606 511.212 238.043 512.897C237.48 514.582 239.405 516.806 240.862 515.789C242.12 514.912 244.153 515.644 244.562 517.122C242.407 516.91 240.07 517.146 238.385 518.506C236.7 519.866 236.039 522.618 237.467 524.246C240.6 522.955 244.3 523.124 247.302 524.696C245.513 526.011 243.056 525.622 240.839 525.49C238.622 525.358 235.923 525.869 235.138 527.947C232.52 534.88 226.087 540.231 218.792 541.541C215.199 542.186 214.622 547.046 214.919 550.685C215.54 558.319 216.161 565.952 216.783 573.585ZM219.683 518.72C218.533 519.771 216.548 520.866 215.696 519.561C220.62 514.278 227.371 510.732 234.515 509.675C235.972 509.459 236.295 507.513 236.191 506.043C235.678 498.812 233.603 491.695 230.149 485.321C229.631 486.661 227.991 487.448 226.622 487.013C230.706 480.877 233.393 473.817 234.422 466.519C227.885 469.229 222.077 473.675 217.755 479.278C217.153 477.128 218.115 474.637 220.006 473.45C211.383 470.286 201.473 470.814 193.235 474.877C193.45 476.214 193.664 477.551 193.878 478.888C189.837 473.993 184.571 470.118 178.696 467.716C180.606 474.848 183.39 481.746 186.967 488.205C185.414 488.541 183.727 487.195 183.709 485.606C180.464 492.667 178.68 500.396 178.502 508.165C178.451 510.399 179.35 513.421 181.572 513.19C187.638 512.562 193.935 514.672 198.397 518.827C194.255 517.631 190.113 516.434 185.971 515.238C184.188 514.723 182.144 514.24 180.581 515.241C179.019 516.242 179.204 519.345 181.059 519.381C185.918 517.965 191.408 518.916 195.507 521.884C190.709 520.817 185.692 520.749 180.867 521.686C179.664 524.59 183.751 526.863 186.895 526.848C190.038 526.833 193.974 526.494 195.5 529.242C191.646 529.041 187.792 528.841 183.938 528.64C184.996 535.508 190.899 541.34 197.778 542.315C199.091 542.501 199.952 543.723 200.929 544.619C204.816 548.184 212.279 545.763 213.333 540.596C222.285 540.321 230.811 534.367 234.151 526.057C229.611 526.702 225.07 527.346 220.529 527.991C221.592 525.941 224.117 525.155 226.413 524.915C228.71 524.676 231.138 524.756 233.174 523.667C235.21 522.579 236.533 519.708 235.075 517.917C229.402 519.911 223.728 521.905 218.054 523.9C219.942 521.086 222.919 519.024 226.216 518.244C228.515 517.7 230.958 517.754 233.158 516.893C235.358 516.032 237.323 513.766 236.701 511.487C230.431 511.887 224.323 514.483 219.683 518.72Z" fill="#00160A"/>
<path fill-rule="evenodd" clip-rule="evenodd" d="M213.998 495.199C213.236 495.16 212.315 495.012 212.033 494.303C213.888 492.202 217.906 492.87 218.981 495.459C217.32 495.372 215.659 495.286 213.998 495.199Z" fill="#00160A"/>
<path fill-rule="evenodd" clip-rule="evenodd" d="M211.15 534.586C211.745 535.303 211.621 536.43 211.062 537.175C210.503 537.92 209.609 538.34 208.711 538.587C207.403 538.946 205.854 538.94 204.859 538.019C203.418 536.686 204.112 533.973 205.883 533.128C207.654 532.282 209.897 533.075 211.15 534.586ZM205.986 534.997C205.535 535.834 206.491 536.866 207.442 536.868C208.393 536.87 209.213 536.238 209.949 535.636C208.981 534.579 207.255 534.315 206.015 535.034L205.986 534.997Z" fill="#00160A"/>
<path fill-rule="evenodd" clip-rule="evenodd" d="M216.126 505.88C214.957 506.47 213.479 505.524 213.037 504.291C212.595 503.058 212.891 501.695 213.232 500.43C213.426 499.709 213.686 498.92 214.335 498.552C215.207 498.057 216.372 498.622 216.879 499.487C217.385 500.352 217.41 501.406 217.421 502.408C217.435 503.714 217.293 505.293 216.126 505.88V505.88Z" fill="#00160A"/>
<path fill-rule="evenodd" clip-rule="evenodd" d="M195.084 534.643C198.6 535.096 202.305 533.394 204.253 530.432C206.2 527.47 206.294 523.393 204.485 520.345C203.528 518.732 202.072 516.723 203.231 515.248C203.819 514.5 204.864 514.308 205.815 514.257C206.854 514.201 207.959 514.266 208.827 514.84C209.695 515.414 210.201 516.643 209.673 517.54C207.588 521.082 207.907 525.888 210.442 529.123C212.978 532.359 217.568 533.817 221.506 532.638C222.226 532.423 223.407 532.496 223.265 533.234C223.23 533.413 223.106 533.56 222.979 533.691C220.754 535.989 216.898 535.615 214.033 534.193C211.369 532.871 209.084 530.798 207.511 528.275C206.103 530.676 204.65 533.13 202.495 534.89C200.34 536.651 197.3 537.601 194.717 536.564C194.01 536.28 193.275 535.427 193.787 534.861C194.093 534.522 194.63 534.585 195.084 534.643Z" fill="#00160A"/>
<path fill-rule="evenodd" clip-rule="evenodd" d="M201.313 494.34C201.49 494.894 200.716 495.23 200.138 495.293C199.041 495.411 197.945 495.529 196.848 495.648C196.002 495.739 194.786 495.491 194.879 494.645C196.386 493.057 199.045 492.725 200.895 493.895C201.071 494.006 201.25 494.142 201.313 494.34Z" fill="#00160A"/>
<path fill-rule="evenodd" clip-rule="evenodd" d="M497.132 555.807C496.913 553.724 496.962 551.276 498.613 549.988C500.063 548.856 502.123 549.124 503.933 549.448C506.809 549.962 509.685 550.476 512.561 550.991C514.808 551.392 517.212 551.778 519.302 550.858C520.969 550.124 522.879 550.91 524.7 550.926C526.187 550.939 527.622 550.43 529.021 549.928C533.313 548.387 537.606 546.847 541.898 545.306C542.687 545.023 543.565 544.74 544.341 545.056C545.521 545.537 545.785 547.059 545.876 548.33C545.98 549.777 546.084 551.225 546.188 552.673C546.315 554.441 546.43 556.287 545.737 557.919C545.043 559.55 543.268 560.87 541.552 560.427C537.12 559.284 532.611 558.438 528.066 557.896C527.151 557.787 525.96 557.852 525.659 558.723C524.969 560.72 522.113 560.4 520.029 560.048C515.25 559.241 510.159 560.499 506.307 563.44C505.275 564.227 504.311 565.14 503.121 565.656C501.931 566.173 500.408 566.201 499.464 565.311C498.819 564.703 498.564 563.799 498.357 562.938C497.794 560.591 497.384 558.208 497.132 555.807ZM518.693 554.144C512.893 553.043 507.065 552.092 501.216 551.291C500.293 551.165 499.434 551.926 499.13 552.807C498.826 553.688 498.943 554.652 499.077 555.574C499.371 557.597 499.728 559.612 500.145 561.613C500.276 562.24 500.428 562.895 500.853 563.374C501.279 563.852 502.07 564.068 502.567 563.664C505.737 561.088 509.491 559.234 513.463 558.283C514.658 557.997 515.899 557.781 516.955 557.154C518.011 556.527 518.86 555.361 518.693 554.144V554.144ZM535.201 549.662C532.114 550.513 528.834 551.482 526.759 553.92C526.128 554.661 525.998 556.238 526.971 556.201C531.822 556.018 536.707 556.775 541.275 558.418C542.246 558.767 543.341 558.071 543.8 557.147C544.259 556.223 544.244 555.144 544.219 554.113C544.172 552.17 544.125 550.226 544.078 548.282C544.07 547.971 544.026 547.598 543.746 547.46C543.559 547.368 543.337 547.421 543.136 547.477C540.491 548.205 537.846 548.934 535.201 549.662ZM520.116 556.875C520.25 557.332 520.445 557.792 520.806 558.103C521.692 558.865 523.181 558.319 523.775 557.313C524.368 556.307 524.308 555.056 524.173 553.896C524.01 552.505 521.933 552.051 520.881 552.974C519.828 553.898 519.72 555.532 520.116 556.875V556.875Z" fill="#00160A"/>
<path fill-rule="evenodd" clip-rule="evenodd" d="M554.673 519.574C552.105 519.26 549.452 519.662 547.092 520.723C546.483 520.997 545.89 520.097 546.154 519.483C546.418 518.87 547.108 518.577 547.738 518.355C551.381 517.074 556.009 516.44 558.608 519.298C557.496 520.058 556.011 519.737 554.673 519.574V519.574Z" fill="#00160A"/>
<path fill-rule="evenodd" clip-rule="evenodd" d="M526.637 533.191C526.697 535.174 524.818 536.787 522.865 537.14C520.912 537.494 518.925 536.912 517.025 536.335C515.372 535.833 514.857 533.512 515.73 532.02C516.602 530.529 518.367 529.791 520.073 529.512C521.477 529.282 522.969 529.306 524.26 529.905C525.55 530.505 526.594 531.768 526.637 533.191V533.191ZM517.479 533.666C517.572 534.261 518.268 534.519 518.852 534.662C519.987 534.94 521.157 535.22 522.312 535.049C523.468 534.877 524.62 534.142 524.921 533.013C523.205 531.239 520.139 530.995 518.164 532.476C517.779 532.765 517.405 533.19 517.479 533.666V533.666Z" fill="#00160A"/>
<path fill-rule="evenodd" clip-rule="evenodd" d="M496.921 523.071C493.494 523.078 490.066 523.086 486.639 523.094C485.916 523.095 484.898 522.716 485.141 522.036C488.721 520.479 492.875 520.29 496.581 521.516C497.263 521.741 498.005 522.661 497.37 522.997C497.235 523.068 497.074 523.07 496.921 523.071V523.071Z" fill="#00160A"/>
<path fill-rule="evenodd" clip-rule="evenodd" d="M534.843 510.027C535.038 508.802 535.375 507.385 536.508 506.881C537.599 506.395 538.924 507.088 539.552 508.103C540.18 509.119 540.285 510.362 540.375 511.553C538.829 511.694 537.283 511.835 535.737 511.976C534.91 512.052 534.712 510.847 534.843 510.027V510.027Z" fill="#00160A"/>
<path fill-rule="evenodd" clip-rule="evenodd" d="M548.263 524.663C547.765 524.56 547.251 524.45 546.836 524.156C546.537 523.944 546.303 523.642 546.173 523.3C549.666 521.827 554.115 523.162 556.221 526.313C553.568 525.763 550.916 525.213 548.263 524.663V524.663Z" fill="#00160A"/>
<path fill-rule="evenodd" clip-rule="evenodd" d="M541.075 503.375C541.963 501.955 544.177 502.621 545.516 503.626C546.837 504.618 548.018 505.794 549.017 507.109C548.973 507.882 547.772 507.707 547.122 507.286C545.106 505.982 543.091 504.679 541.075 503.375Z" fill="#00160A"/>
<path fill-rule="evenodd" clip-rule="evenodd" d="M492.616 526.817C494.029 526.333 495.442 525.85 496.855 525.367C497.422 525.174 498.026 524.978 498.608 525.121C499.189 525.264 499.69 525.895 499.467 526.45C496.691 527.488 493.879 528.43 491.038 529.275C490.587 528.886 490.679 528.118 491.07 527.669C491.461 527.22 492.052 527.009 492.616 526.817Z" fill="#00160A"/>
<path fill-rule="evenodd" clip-rule="evenodd" d="M504.34 509C504.879 509.365 505.157 510 505.407 510.601C505.741 511.4 506.081 512.262 505.9 513.109C505.72 513.955 504.769 514.686 503.991 514.306C503.109 513.876 502.151 515.454 501.282 514.998C500.871 514.782 500.792 514.238 500.762 513.774C500.681 512.528 500.615 511.206 501.206 510.106C501.797 509.005 503.305 508.3 504.34 509Z" fill="#00160A"/>
<path fill-rule="evenodd" clip-rule="evenodd" d="M493.558 508.443C494.86 505.241 498.594 503.237 501.982 503.921C502.442 504.014 503.011 504.359 502.848 504.8C502.762 505.033 502.503 505.144 502.269 505.23C499.366 506.301 496.462 507.372 493.558 508.443Z" fill="#00160A"/>
<path fill-rule="evenodd" clip-rule="evenodd" d="M510.853 524.624C510.124 524.716 509.194 524.646 508.92 523.964C509.41 523.573 509.996 523.158 510.606 523.3C511.216 523.442 511.438 524.507 510.825 524.636L510.853 524.624Z" fill="#00160A"/>
<path fill-rule="evenodd" clip-rule="evenodd" d="M525.467 523.577C526.235 523.449 526.639 522.369 526.145 521.768C525.65 521.167 524.513 521.357 524.24 522.086C523.966 522.815 524.699 523.705 525.467 523.577Z" fill="#00160A"/>
<path fill-rule="evenodd" clip-rule="evenodd" d="M508.407 528.785C507.331 528.629 505.948 527.929 506.279 526.893C507.464 526.21 508.934 526.795 510.288 526.991C511.642 527.187 513.469 526.446 513.246 525.096C513.472 525.665 513.698 526.234 513.925 526.802C515.303 526.435 516.589 525.728 517.638 524.763C518.231 524.217 518.761 523.279 518.234 522.669C517.014 521.257 518.339 518.61 520.201 518.74C522.062 518.87 523.007 521.674 521.603 522.904C521.239 523.223 521.605 523.808 521.983 524.111C524.616 526.225 528.287 526.977 531.54 526.067C532.994 525.66 534.852 525.063 535.776 526.257C531.137 529.607 524.087 529.024 520.061 524.959C517.795 528.655 512.697 529.406 508.407 528.785Z" fill="#00160A"/>
<path fill-rule="evenodd" clip-rule="evenodd" d="M530.268 522.426C530.715 522.628 530.785 523.353 530.384 523.636C529.984 523.919 529.324 523.612 529.283 523.123C529.452 522.76 529.844 522.513 530.245 522.517L530.268 522.426Z" fill="#00160A"/>
<path fill-rule="evenodd" clip-rule="evenodd" d="M513.42 522.937C513.888 523.656 515.262 522.762 514.794 522.043C514.325 521.324 512.952 522.218 513.42 522.937Z" fill="#00160A"/>
<path fill-rule="evenodd" clip-rule="evenodd" d="M474.425 308.929C472.624 309.129 470.681 309.568 469.086 308.707C470.974 306.932 473.79 306.587 476.377 306.715C480.762 306.931 485.087 308.263 488.834 310.55C488.048 312 485.875 311.287 484.383 310.585C481.3 309.133 477.812 308.553 474.425 308.929Z" fill="#00160A"/>
<path fill-rule="evenodd" clip-rule="evenodd" d="M537.761 293.863C537.474 292.78 537.459 291.894 538.448 291.365C539.886 290.595 544.429 290.667 544.919 291.787C545.41 292.907 543.543 298.057 540.923 298.057C539.875 298.057 538.048 294.947 537.761 293.863Z" fill="#00160A"/>
<path fill-rule="evenodd" clip-rule="evenodd" d="M566.579 306.623C560.94 306.974 555.357 308.206 550.093 310.26C549.371 310.541 548.261 310.651 548.097 309.894C549.016 308.35 550.861 307.658 552.586 307.153C556.447 306.025 560.422 305.285 564.431 304.95C565.01 304.901 565.629 304.869 566.136 305.154C566.643 305.44 566.941 306.167 566.579 306.623V306.623Z" fill="#00160A"/>
<path fill-rule="evenodd" clip-rule="evenodd" d="M567.717 312.949C563.257 313.347 558.798 313.746 554.338 314.145C553.525 314.218 552.307 313.674 552.775 313.005C557.363 311.571 562.179 310.873 566.984 310.945C568.173 310.963 569.552 311.134 570.176 312.145C569.545 312.759 568.594 312.87 567.717 312.949V312.949Z" fill="#00160A"/>
<path fill-rule="evenodd" clip-rule="evenodd" d="M502.139 298.429C501.193 299.541 499.277 299.223 498.264 298.172C497.252 297.121 496.906 295.614 496.602 294.187C496.443 293.443 496.304 292.598 496.747 291.979C497.212 291.33 503.682 291.284 503.99 291.841C504.297 292.397 504.107 292.866 503.99 293.298C503.777 294.083 502.823 297.624 502.139 298.429Z" fill="#00160A"/>
<path fill-rule="evenodd" clip-rule="evenodd" d="M468.358 316.07C473.982 313.753 480.259 313.047 486.257 314.057C486.899 314.165 487.605 314.334 487.97 314.874C488.336 315.413 487.983 316.377 487.339 316.285C480.371 315.294 472.807 315.366 466.877 319.158C466.254 318.803 466.211 317.858 466.609 317.262C467.007 316.666 467.696 316.343 468.358 316.07Z" fill="#00160A"/>
<path fill-rule="evenodd" clip-rule="evenodd" d="M509.65 321.611C509.36 320.778 509.981 319.758 510.854 319.633C511.203 319.86 511.432 320.261 511.451 320.676C511.178 321.319 510.463 321.743 509.769 321.674L509.65 321.611Z" fill="#00160A"/>
<path fill-rule="evenodd" clip-rule="evenodd" d="M500.551 285.515C501.526 285.53 502.862 286.182 502.436 287.058C498.2 287.306 494.018 288.427 490.226 290.33C489.667 290.274 489.401 289.532 489.617 289.013C489.834 288.494 490.347 288.171 490.841 287.902C493.803 286.294 497.182 285.463 500.551 285.515Z" fill="#00160A"/>
<path fill-rule="evenodd" clip-rule="evenodd" d="M524.188 320.9C524.805 320.235 526.048 320.345 526.539 321.107C526.058 322.026 524.443 321.935 524.068 320.968L524.188 320.9Z" fill="#00160A"/>
<path fill-rule="evenodd" clip-rule="evenodd" d="M528.479 320.457C528.909 319.833 530.128 320.373 529.954 321.111C529.773 321.483 529.37 321.735 528.957 321.735C528.481 321.552 528.247 320.915 528.491 320.468L528.479 320.457Z" fill="#00160A"/>
<path fill-rule="evenodd" clip-rule="evenodd" d="M513.909 317.062C513.48 317.686 512.26 317.146 512.435 316.408C512.615 316.036 513.019 315.784 513.432 315.785C513.908 315.967 514.142 316.604 513.898 317.051L513.909 317.062Z" fill="#00160A"/>
<path fill-rule="evenodd" clip-rule="evenodd" d="M506.712 318.768C506.674 319.492 507.576 320.077 508.222 319.747C508.868 319.417 508.923 318.344 508.315 317.95C507.706 317.555 506.749 318.044 506.712 318.768Z" fill="#00160A"/>
<path fill-rule="evenodd" clip-rule="evenodd" d="M525.08 318.316C525.697 318.777 526.744 318.329 526.836 317.565C526.927 316.8 526.015 316.117 525.307 316.42C524.6 316.723 524.464 317.855 525.08 318.316Z" fill="#00160A"/>
<path fill-rule="evenodd" clip-rule="evenodd" d="M536.515 287.683C540.137 285.061 545.15 286.264 549.425 287.573C550.095 287.778 550.932 288.392 550.546 288.976C550.315 289.324 549.81 289.312 549.396 289.261C545.102 288.735 540.809 288.209 536.515 287.683Z" fill="#00160A"/>
<path fill-rule="evenodd" clip-rule="evenodd" d="M520.317 318.317C521.62 322.368 526.304 324.994 530.44 323.994C532.259 323.554 534.336 322.565 535.828 323.695C533.212 325.885 529.531 326.736 526.219 325.917C522.908 325.099 520.048 322.63 518.754 319.473C516.189 323.048 512.123 325.507 507.766 326.117C507.116 326.208 506.377 326.235 505.885 325.8C505.392 325.364 505.522 324.326 506.178 324.281C509.774 324.03 513.262 322.451 515.823 319.914C517.213 318.537 518.356 316.323 517.244 314.712C516.208 313.212 515.375 311.572 514.775 309.85C514.552 309.212 514.379 308.446 514.789 307.908C515.093 307.511 515.62 307.374 516.107 307.263C517.587 306.924 519.118 306.583 520.609 306.865C522.1 307.148 523.552 308.226 523.773 309.728C524.239 312.901 519.334 315.265 520.317 318.317Z" fill="#00160A"/>
<path fill-rule="evenodd" clip-rule="evenodd" d="M225.146 307.38C225.468 306.445 227.208 306.768 227.172 307.756C226.808 308.684 225.082 308.343 225.098 307.346L225.146 307.38Z" fill="#00160A"/>
<path fill-rule="evenodd" clip-rule="evenodd" d="M209.44 311.677C209.241 310.681 207.338 311.059 207.536 312.056C207.734 313.053 209.638 312.674 209.44 311.677Z" fill="#00160A"/>
<path fill-rule="evenodd" clip-rule="evenodd" d="M212.14 313.366C212.596 312.804 213.4 312.551 214.095 312.751C214.323 313.034 214.395 313.436 214.279 313.78C213.763 313.991 213.247 314.201 212.731 314.411C212.513 314.081 212.294 313.751 212.075 313.422L212.14 313.366Z" fill="#00160A"/>
<path fill-rule="evenodd" clip-rule="evenodd" d="M212.37 311.002C212.023 310.761 211.791 310.363 211.75 309.943C212.126 309.161 213.458 309.152 213.846 309.929C213.489 310.441 212.962 310.832 212.369 311.023L212.37 311.002Z" fill="#00160A"/>
<path fill-rule="evenodd" clip-rule="evenodd" d="M200.237 313.578C199.721 314.25 198.557 313.377 198.697 312.541C198.836 311.704 199.618 311.161 200.281 310.632C201.694 309.504 202.833 308.032 204.372 307.083C205.911 306.133 208.115 305.859 209.399 307.133C205.787 308.288 202.545 310.569 200.237 313.578Z" fill="#00160A"/>
<path fill-rule="evenodd" clip-rule="evenodd" d="M195.823 304.436C197.916 302.478 200.519 301.068 203.303 300.385C203.897 300.239 204.547 300.131 205.103 300.386C205.659 300.642 206.011 301.407 205.638 301.892C202.095 302.521 198.761 304.276 196.238 306.84C195.779 307.307 194.909 306.744 194.885 306.09C194.862 305.436 195.345 304.883 195.823 304.436Z" fill="#00160A"/>
<path fill-rule="evenodd" clip-rule="evenodd" d="M222.323 308.016C222.259 307.536 223.082 307.798 223.328 308.216C222.993 308.715 222.659 309.214 222.324 309.713C221.629 309.488 221.597 308.297 222.279 308.036L222.323 308.016Z" fill="#00160A"/>
<path fill-rule="evenodd" clip-rule="evenodd" d="M243.025 305.405C239.997 304.472 236.968 303.54 233.94 302.607C233.231 302.389 232.456 302.118 232.096 301.47C236.277 300.524 240.874 301.644 244.152 304.406C244.29 304.523 244.432 304.653 244.477 304.828C244.637 305.447 243.637 305.593 243.025 305.405Z" fill="#00160A"/>
<path fill-rule="evenodd" clip-rule="evenodd" d="M222.966 310.851C223.303 310.446 224.019 310.457 224.344 310.872C224.668 311.286 224.507 311.984 224.034 312.215C223.33 312.145 222.726 311.511 222.69 310.804L222.966 310.851Z" fill="#00160A"/>
<path fill-rule="evenodd" clip-rule="evenodd" d="M240.887 311.972C237.746 310.869 234.604 309.766 231.463 308.664C231.206 308.574 230.934 308.473 230.77 308.256C230.408 307.781 230.827 307.041 231.397 306.863C231.967 306.685 232.579 306.884 233.142 307.082C234.835 307.675 236.527 308.269 238.22 308.862C239.669 309.37 241.454 310.545 240.887 311.972V311.972Z" fill="#00160A"/>
<path fill-rule="evenodd" clip-rule="evenodd" d="M652.267 175.572C663.672 180.191 671.43 191.309 675.029 203.076C678.628 214.842 678.663 227.36 678.668 239.665C678.705 330.829 678.741 421.993 678.778 513.158C678.778 526.495 678.675 540.355 672.89 552.372C667.585 563.389 657.545 572.025 645.859 575.622C637.379 578.233 628.349 578.252 619.476 578.252C451.464 578.223 283.451 578.193 115.439 578.164C107.068 578.163 98.1182 577.99 91.2279 573.237C80.1942 565.626 79.1031 550.031 79.0989 536.627C79.066 432.467 79.033 328.306 79 224.146C79 216.404 79.0273 208.472 81.7025 201.208C86.32 188.668 98.3149 180 111.066 176.004C123.818 172.008 137.426 171.987 150.789 172C181.026 172.034 211.264 172.067 241.502 172.1C370.577 172.241 499.652 172.382 628.727 172.523C636.692 172.532 644.885 172.583 652.267 175.572V175.572ZM371.169 576.063C371.097 509.783 371.026 443.502 370.954 377.221C275.622 377.26 180.289 377.299 84.9566 377.338C84.1361 377.338 83.2177 377.378 82.6519 377.972C82.1207 378.53 82.089 379.383 82.0884 380.153C82.0457 435.772 82.003 491.391 81.9601 547.01C81.9601 549.907 81.9601 552.831 82.5717 555.663C84.6002 565.032 93.1421 571.881 102.298 574.722C111.453 577.563 121.256 577.132 130.835 576.775C167.926 575.389 205.055 575.512 242.172 575.635C285.171 575.778 328.17 575.921 371.169 576.063ZM373.617 377.512C373.673 443.617 373.728 509.722 373.784 575.827C457.345 575.749 540.906 575.671 624.466 575.593C630.75 575.587 637.102 575.574 643.213 574.113C657.593 570.674 669.485 558.887 673.72 544.721C676.221 536.353 676.222 527.47 676.202 518.736C676.094 471.545 675.987 424.354 675.879 377.163C575.125 377.279 474.371 377.395 373.617 377.512ZM373.587 175.483C373.674 241.761 373.761 308.039 373.848 374.316C473.683 374.323 573.518 374.33 673.353 374.337C674.185 374.337 675.14 374.28 675.647 373.621C676.011 373.148 676.026 372.504 676.027 371.908C676.041 323.597 676.056 275.287 676.07 226.977C676.07 219.845 676.063 212.622 674.274 205.719C669.387 186.853 649.972 172.885 630.531 174.246C616.116 175.256 601.651 175.27 587.2 175.283C515.996 175.35 444.791 175.417 373.587 175.483ZM371.164 374.06C371.085 307.791 371.005 241.521 370.926 175.251C288.612 175.222 206.298 175.192 123.984 175.163C104.571 175.156 86.2579 190.436 82.7873 209.536C81.8824 214.516 81.8879 219.611 81.8947 224.672C81.9783 274.481 82.0604 324.29 82.1425 374.098C178.482 374.498 274.824 374.485 371.164 374.06Z" fill="#00160A"/>
<path fill-rule="evenodd" clip-rule="evenodd" d="M219.998 308.022C219.413 309.554 220.157 311.329 221.335 312.471C223.051 314.136 225.695 314.775 227.982 314.076C229.629 313.573 231.623 312.517 232.841 313.732C229.212 317.388 222.32 316.873 219.275 312.718C218.323 315.199 216.145 317.175 213.583 317.88C211.022 318.585 208.139 318.003 206.052 316.359C207.586 315.088 209.86 316.08 211.853 316.091C213.96 316.103 216.02 314.814 216.93 312.914C217.841 311.013 217.554 308.6 216.224 306.965C214.868 305.299 213.818 303.384 213.142 301.344C212.986 300.871 212.849 300.357 213 299.883C213.31 298.912 214.557 298.682 215.574 298.631C217.66 298.526 219.749 298.47 221.838 298.461C222.841 298.457 224.057 298.593 224.479 299.503C224.756 300.103 224.556 300.808 224.312 301.423C223.678 303.024 222.764 304.514 221.626 305.807C221.017 306.499 220.327 307.161 219.998 308.022Z" fill="#00160A"/>
<path fill-rule="evenodd" clip-rule="evenodd" d="M237.856 267.242C234.769 266.667 231.516 267.013 228.619 268.223C228.216 268.392 227.752 268.576 227.363 268.377C226.889 268.135 226.84 267.425 227.135 266.981C227.43 266.538 227.947 266.303 228.445 266.113C233.569 264.148 239.547 264.549 244.362 267.182C242.528 268.459 240.053 267.65 237.856 267.242V267.242Z" fill="#00160A"/>
<path fill-rule="evenodd" clip-rule="evenodd" d="M236.343 282.845C236.083 283.355 235.77 283.879 235.26 284.139C234.503 284.524 233.521 284.164 233.004 283.49C232.488 282.816 232.363 281.914 232.426 281.067C232.555 279.338 234.051 277.397 235.683 277.983C237.433 278.611 237.189 281.19 236.343 282.845V282.845Z" fill="#00160A"/>
<path fill-rule="evenodd" clip-rule="evenodd" d="M206.377 279.889C206.561 281.359 205.911 283.005 204.567 283.628C203.223 284.25 201.311 283.407 201.167 281.933C201.117 281.42 201.266 280.91 201.423 280.419C201.881 278.987 202.821 277.303 204.319 277.431C205.472 277.529 206.233 278.741 206.377 279.889Z" fill="#00160A"/>
<path fill-rule="evenodd" clip-rule="evenodd" d="M193.285 269.355C193.046 268.587 193.976 268 194.744 267.76C199.27 266.345 204.162 266.121 208.799 267.116C209.481 267.262 210.231 267.488 210.572 268.097C210.912 268.706 210.391 269.702 209.729 269.484C205.175 267.988 200.118 268.072 195.616 269.718C194.784 270.023 193.549 270.201 193.285 269.355V269.355Z" fill="#00160A"/>
<path fill-rule="evenodd" clip-rule="evenodd" d="M260.105 230.668C259.66 237.728 259.215 244.809 259.633 251.871C259.958 257.368 260.804 262.833 260.882 268.339C261.105 284.252 254.867 299.665 246.38 313.128C266.755 326.831 282.114 347.824 289.009 371.39C286.072 369.557 284.809 366.006 283.575 362.771C276.765 344.908 264.781 329.052 249.454 317.626C247.256 315.987 243.52 314.749 242.305 317.206C239.559 322.758 235.5 327.655 230.554 331.384C228.759 332.736 226.751 334.073 225.349 335.771C225.362 335.91 225.367 336.05 225.367 336.191C225.367 339.063 223.039 341.391 220.167 341.391C218.215 341.391 216.514 340.315 215.625 338.724C202.679 333.033 192.145 321.984 187.19 308.725C177.725 315.289 172.267 326.46 170.175 337.787C168.083 349.114 168.972 360.754 169.869 372.237C168.924 372.878 168.039 371.33 167.931 370.194C166.839 358.696 166.226 346.989 168.612 335.689C170.997 324.388 176.698 313.404 186.117 306.719C177.376 287.689 180.775 264.343 170.112 246.319C169.479 245.249 168.946 243.579 170.054 243.016C170.465 242.807 170.956 242.872 171.411 242.949C178.846 244.21 185.931 247.48 191.715 252.32C193.207 253.568 195.439 252.657 197.182 251.794C210.581 245.159 226.58 243.97 240.812 248.552C244.387 241.682 249.654 235.7 256.017 231.283C257.244 230.431 259.001 229.662 260.105 230.668ZM214.145 323.528C218.731 323.93 223.403 324.327 227.897 323.329C238.176 321.047 245.551 311.952 250.26 302.535C255.653 291.751 258.674 279.789 259.049 267.738C255.724 270.412 252.399 273.086 249.074 275.76C247.105 277.344 244.954 279.294 244.992 281.82C245.046 285.413 242.82 288.94 239.554 290.437C236.287 291.935 232.163 291.319 229.476 288.933C226.443 286.24 224.721 281.366 220.682 281.011C215.918 280.592 213.648 286.7 209.815 289.56C204.93 293.203 197.046 290.468 194.608 284.883C194.144 283.82 194.31 281.935 193.247 281.288C189.859 279.225 186.117 279.15 181.701 279.297C182.488 288.918 184.817 298.411 188.572 307.303C190.236 311.244 192.264 315.178 195.53 317.94C200.561 322.194 207.582 322.952 214.145 323.528ZM241.748 250.734C240.266 253.562 237.78 257.101 234.798 255.959C236.713 254.319 238.368 252.374 239.681 250.221C224.844 245.992 208.408 247.679 194.739 254.833C195.916 256.257 197.363 257.457 198.98 258.349C197.269 259.979 194.628 257.981 193.01 256.26C187.499 250.401 179.967 246.482 172.007 245.331C175.273 250.573 178.293 260.956 181.066 276.482C185.56 277.498 188.581 278.023 190.128 278.056C191.909 278.094 194.079 277.909 194.857 276.307C196.914 272.075 202.064 269.606 206.651 270.653C211.239 271.701 214.807 276.16 214.822 280.866C217.798 278.917 221.778 278.607 225.019 280.073C225.357 276.069 228.39 272.431 232.269 271.379C236.148 270.328 240.603 271.934 242.918 275.22C243.925 276.649 246.153 275.599 247.488 274.471C250.256 272.133 253.023 269.796 255.79 267.459C257.35 266.142 259.065 264.433 258.738 262.418C257.119 252.44 256.917 242.233 258.14 232.199C251.291 236.937 245.614 243.357 241.748 250.734ZM234.675 322.575C228.015 327.099 219.224 326.31 211.231 325.342C206.864 324.814 202.346 324.234 198.592 321.942C197.821 321.471 196.81 320.932 196.097 321.488C200.572 327.073 206.367 331.593 212.873 334.574C213.84 335.017 215.265 335.278 215.724 334.318C216.777 332.111 219.975 331.294 221.959 332.724C223.573 333.888 225.804 332.77 227.399 331.581C230.98 328.909 234.248 325.82 237.117 322.394C236.697 321.563 235.446 322.052 234.675 322.575ZM196.905 285.085C198.913 288.474 203.494 290.071 207.174 288.665C210.853 287.259 213.202 283.014 212.438 279.15C211.675 275.285 207.888 272.253 203.95 272.352C200.012 272.452 196.383 275.672 195.815 279.57C195.54 281.46 195.931 283.441 196.905 285.085ZM227.495 279.225C227.022 282.025 228.118 284.976 230.104 287.005C231.563 288.495 233.574 289.548 235.659 289.471C239.385 289.333 242.095 285.77 243.244 282.223C243.544 281.298 243.779 280.314 243.597 279.359C243.361 278.119 242.46 277.118 241.52 276.276C239.159 274.163 235.975 272.562 232.888 273.272C230.121 273.907 227.968 276.426 227.495 279.225Z" fill="#00160A"/>
</g>
<defs>
<filter id="filter0_d_565_461" x="0" y="0" width="758" height="758" filterUnits="userSpaceOnUse" color-interpolation-filters="sRGB">
<feFlood flood-opacity="0" result="BackgroundImageFix"/>
<feColorMatrix in="SourceAlpha" type="matrix" values="0 0 0 0 0 0 0 0 0 0 0 0 0 0 0 0 0 0 127 0" result="hardAlpha"/>
<feOffset dy="4"/>
<feGaussianBlur stdDeviation="2"/>
<feComposite in2="hardAlpha" operator="out"/>
<feColorMatrix type="matrix" values="0 0 0 0 0 0 0 0 0 0 0 0 0 0 0 0 0 0 0.25 0"/>
<feBlend mode="normal" in2="BackgroundImageFix" result="effect1_dropShadow_565_461"/>
<feBlend mode="normal" in="SourceGraphic" in2="effect1_dropShadow_565_461" result="shape"/>
</filter>
</defs>
</svg>
